<?xml version="1.0" encoding="utf-8"?>
<!-- Generator: Adobe Illustrator 19.2.1, SVG Export Plug-In . SVG Version: 6.00 Build 0)  -->
<svg version="1.1" xmlns="http://www.w3.org/2000/svg" xmlns:xlink="http://www.w3.org/1999/xlink" x="0px" y="0px"
	 viewBox="0 0 512 512" style="enable-background:new 0 0 512 512;" xml:space="preserve">
<style type="text/css">
	.st0{display:none;}
	.st1{fill:#75A897;}
	.st2{fill:#D5872A;}
	.st3{fill:#5082A9;}
	.st4{fill:#E09C6F;}
	.st5{fill:#E4C856;}
	.st6{fill:#87B7DD;}
	.st7{fill:#B9BDC2;}
	.st8{fill:#57646E;}
	.st9{fill:#CA6A46;}
	.st10{fill:#1F3049;}
	.st11{fill:#298063;}
	.st12{fill:#C93A3A;}
	.st13{fill:#DA8B80;}
	.st14{fill:#C9402E;}
	.st15{fill:#E29E6F;}
	.st16{fill:#A32929;}
	.st17{fill:#F5F5F5;}
	.st18{fill:#C9553E;}
	.st19{fill:#E09E9A;}
	.st20{fill:#FFFFFF;}
	.st21{fill:#E6A585;}
	.st22{fill:#4E3333;}
	.st23{fill:#2B5F87;}
	.st24{opacity:0.31;fill:#FFFFFF;}
	.st25{fill:#E6CA56;}
	.st26{fill:#4D917B;}
	.st27{fill:#B8B8B8;}
	.st28{fill:#8998A0;}
	.st29{fill:#394755;}
	.st30{fill:#F2D1B4;}
	.st31{fill:#ECE4C7;}
	.st32{fill:#F1CB58;}
	.st33{fill:#E1E1E1;}
</style>
<g id="GUIDELINES" class="st0">
</g>
<g id="Layer_9">
</g>
<g id="ICON">
	<ellipse class="st11" cx="256.4" cy="256" rx="256" ry="256"/>
</g>
<g id="Layer_8">
	<g>
		<path class="st12" d="M394.1,324.1L378.5,157c-1.1-13.7-13.2-25-27-25H166.6c-13.8,0-25.9,11.2-27,25l-15.2,167.1H394.1z"/>
		<path class="st6" d="M368.2,222.8c0.9,7.6-4.7,13.8-12.3,13.8H162.7c-7.6,0-13.2-6.2-12.4-13.8l6.6-62.1
			c0.8-7.6,7.7-13.8,15.3-13.8h173.3c7.6,0,14.6,6.2,15.5,13.8L368.2,222.8z"/>
		<g>
			<path class="st10" d="M186.9,377.5c0,5-4.1,9.1-9.1,9.1h-23.3c-5,0-9.1-4.1-9.1-9.1v-53.1c0-5,4.1-9.1,9.1-9.1h23.3
				c5,0,9.1,4.1,9.1,9.1V377.5z"/>
			<path class="st10" d="M371.9,377.5c0,5-4.1,9.1-9.1,9.1h-23.3c-5,0-9.1-4.1-9.1-9.1v-53.1c0-5,4.1-9.1,9.1-9.1h23.3
				c5,0,9.1,4.1,9.1,9.1V377.5z"/>
		</g>
		<path class="st12" d="M409.4,304.7c0,5.5-4.1,10-9.1,10H117c-5,0-9.1-4.5-9.1-10v-58.8c0-5.6,4-10,9.1-10h283.4
			c5,0,9.1,4.5,9.1,10V304.7z"/>
		<path class="st7" d="M422.4,334.8c0,2.9-2.3,5.2-5.2,5.2h-317c-2.9,0-5.2-2.3-5.2-5.2v-19.4c0-2.9,2.3-5.2,5.2-5.2h317
			c2.9,0,5.2,2.3,5.2,5.2V334.8z"/>
		<g>
			<path class="st5" d="M395.2,281c0,9.5-7.7,17.3-17.3,17.3h-16.2c-9.5,0-17.3-7.7-17.3-17.3v-18.3c0-9.5,7.7-17.3,17.3-17.3H378
				c9.5,0,17.3,7.7,17.3,17.3V281z"/>
			<path class="st2" d="M361.7,289.2c-4.6,0-8.3-3.7-8.3-8.3v-18.3c0-4.6,3.7-8.3,8.3-8.3H378c4.6,0,8.3,3.7,8.3,8.3V281
				c0,4.6-3.7,8.3-8.3,8.3H361.7z"/>
			<path class="st5" d="M172.9,281c0,9.5-7.7,17.3-17.3,17.3h-16.2c-9.5,0-17.3-7.7-17.3-17.3v-18.3c0-9.5,7.7-17.3,17.3-17.3h16.2
				c9.5,0,17.3,7.7,17.3,17.3V281z"/>
			<path class="st2" d="M139.4,289.2c-4.6,0-8.3-3.7-8.3-8.3v-18.3c0-4.6,3.7-8.3,8.3-8.3h16.2c4.6,0,8.3,3.7,8.3,8.3V281
				c0,4.6-3.7,8.3-8.3,8.3H139.4z"/>
		</g>
		<g>
			<g>
				<path class="st8" d="M249.5,224.5v-30.5c0-7.4-6-13.4-13.4-13.4h-48.9c-7.4,0-13.4,6-13.4,13.4v30.5H249.5z"/>
				<path class="st8" d="M344.8,224.5v-30.5c0-7.4-6-13.4-13.4-13.4h-48.9c-7.4,0-13.4,6-13.4,13.4v30.5H344.8z"/>
			</g>
			<g>
				<path class="st10" d="M360.9,236.6c-9.1-11.3-23.1-18.6-38.7-18.6H196.4c-15.7,0-29.6,7.2-38.7,18.6H360.9z"/>
				<g>
					<path class="st10" d="M297.6,231.4c-1.4-2.8-2.2-5.9-2.2-9.2c0-11.5,9.3-20.8,20.8-20.8c11.5,0,20.8,9.3,20.8,20.8
						c0,3.3-0.8,6.5-2.2,9.2h7.5c1-2.9,1.6-6,1.6-9.2c0-15.3-12.4-27.7-27.7-27.7c-15.3,0-27.7,12.4-27.7,27.7
						c0,3.2,0.6,6.4,1.6,9.2H297.6z"/>
				</g>
			</g>
		</g>
		<path class="st10" d="M322.4,292c0,2.8-2.2,5-5,5h-113c-2.8,0-5-2.2-5-5v-37c0-2.8,2.2-5,5-5h113c2.8,0,5,2.2,5,5V292z"/>
	</g>
</g>
</svg>
